<?xml version="1.0" encoding="UTF-8" standalone="no"?>
<svg
   width="189.46625mm"
   height="82.70858mm"
   viewBox="0 0 189.46625 82.70858"
   version="1.1"
   id="svg8"
   inkscape:export-filename="/home/arne/gaitmap_logo.png"
   inkscape:export-xdpi="96"
   inkscape:export-ydpi="96"
   inkscape:version="1.0.2 (e86c870879, 2021-01-15)"
   sodipodi:docname="gaitmap_logo_source.svg"
   xmlns:inkscape="http://www.inkscape.org/namespaces/inkscape"
   xmlns:sodipodi="http://sodipodi.sourceforge.net/DTD/sodipodi-0.dtd"
   xmlns:xlink="http://www.w3.org/1999/xlink"
   xmlns="http://www.w3.org/2000/svg"
   xmlns:svg="http://www.w3.org/2000/svg"
   xmlns:rdf="http://www.w3.org/1999/02/22-rdf-syntax-ns#"
   xmlns:cc="http://creativecommons.org/ns#"
   xmlns:dc="http://purl.org/dc/elements/1.1/">
  <defs
     id="defs2">
    <inkscape:path-effect
       effect="roughen"
       id="path-effect1190"
       is_visible="true"
       lpeversion="1"
       method="size"
       max_segment_size="0"
       segments="10"
       displace_x="0;1"
       displace_y="0.3;1"
       global_randomize="0.1;1863900670"
       handles="along"
       shift_nodes="true"
       fixed_displacement="true"
       spray_tool_friendly="true" />
    <inkscape:path-effect
       effect="roughen"
       id="path-effect1136"
       is_visible="true"
       lpeversion="1"
       method="size"
       max_segment_size="0"
       segments="10"
       displace_x="0;1"
       displace_y="0.3;1"
       global_randomize="0.1;2147483646"
       handles="along"
       shift_nodes="true"
       fixed_displacement="true"
       spray_tool_friendly="true" />
    <linearGradient
       id="linearGradient998"
       inkscape:swatch="solid">
      <stop
         style="stop-color:#ffffff;stop-opacity:1;"
         offset="0"
         id="stop996" />
    </linearGradient>
    <rect
       x="318.31445"
       y="128.71085"
       width="87.569069"
       height="20.289232"
       id="rect990" />
    <clipPath
       clipPathUnits="userSpaceOnUse"
       id="clipPath853">
      <rect
         style="stroke-width:3.565"
         id="rect855"
         width="82.157043"
         height="136.04993"
         x="3.2127976"
         y="40.269127" />
    </clipPath>
    <clipPath
       clipPathUnits="userSpaceOnUse"
       id="clipPath873">
      <ellipse
         style="opacity:0.211376;stroke-width:2.16411"
         id="circle875"
         cx="35.29575"
         cy="95.956673"
         rx="40.877689"
         ry="42.814739" />
    </clipPath>
    <linearGradient
       inkscape:collect="always"
       xlink:href="#linearGradient998"
       id="linearGradient1000"
       x1="318.39838"
       y1="135.15497"
       x2="362.04166"
       y2="135.15497"
       gradientUnits="userSpaceOnUse" />
    <rect
       x="318.31445"
       y="128.71085"
       width="91.531898"
       height="29.709639"
       id="rect990-3" />
    <rect
       x="318.31445"
       y="128.71085"
       width="91.531898"
       height="29.709639"
       id="rect959" />
    <rect
       x="318.31445"
       y="128.71085"
       width="87.569069"
       height="20.289232"
       id="rect990-36" />
    <rect
       x="318.31445"
       y="128.71085"
       width="87.569069"
       height="20.289232"
       id="rect1156" />
  </defs>
  <sodipodi:namedview
     id="base"
     pagecolor="#ffffff"
     bordercolor="#666666"
     borderopacity="1.0"
     inkscape:pageopacity="0.0"
     inkscape:pageshadow="2"
     inkscape:zoom="1.7128488"
     inkscape:cx="310.42502"
     inkscape:cy="68.051202"
     inkscape:document-units="mm"
     inkscape:current-layer="layer1"
     inkscape:document-rotation="0"
     showgrid="false"
     inkscape:snap-global="false"
     inkscape:window-width="2560"
     inkscape:window-height="1411"
     inkscape:window-x="0"
     inkscape:window-y="0"
     inkscape:window-maximized="1"
     fit-margin-top="5"
     fit-margin-left="5"
     fit-margin-right="5"
     fit-margin-bottom="5"
     inkscape:showpageshadow="2"
     inkscape:pagecheckerboard="0"
     inkscape:deskcolor="#d1d1d1" />
  <metadata
     id="metadata5">
    <rdf:RDF>
      <cc:Work
         rdf:about="">
        <dc:format>image/svg+xml</dc:format>
        <dc:type
           rdf:resource="http://purl.org/dc/dcmitype/StillImage" />
        <dc:title />
      </cc:Work>
    </rdf:RDF>
  </metadata>
  <g
     inkscape:label="Layer 1"
     inkscape:groupmode="layer"
     id="layer1"
     style="display:inline"
     transform="translate(-11.541426,-88.401019)">
    <g
       id="logo-with-text"
       inkscape:label="logo-with-text">
      <path
         style="fill:none;fill-opacity:1;stroke:#696969;stroke-width:2.403;stroke-linecap:round;stroke-miterlimit:4;stroke-dasharray:none;stroke-dashoffset:63.3997;stroke-opacity:1"
         id="logo-ring"
         sodipodi:type="arc"
         sodipodi:cx="52.896069"
         sodipodi:cy="129.75459"
         sodipodi:rx="40.15155"
         sodipodi:ry="40.151619"
         sodipodi:start="0.43633231"
         sodipodi:end="5.5850536"
         sodipodi:arc-type="arc"
         sodipodi:open="true"
         inkscape:path-effect="#path-effect1190"
         d="M 89.285731,146.7234 C 81.742933,162.89901 64.42814,172.15398 46.788079,169.43891 29.148018,166.72384 15.417624,152.69055 13.08802,134.99543 10.758417,117.30031 20.388885,100.1915 36.725164,93.003355 53.061444,85.815208 72.181607,90.273412 83.65394,103.94563" />
      <g
         id="logo"
         transform="matrix(0.42751578,0,0,0.42751578,10.660721,81.38407)">
        <circle
           style="display:inline;opacity:1;fill:#35969c;fill-opacity:1;stroke-width:4.12299"
           id="circle1809"
           cx="98.74688"
           cy="113.26224"
           r="79.702843" />
        <path
           id="path1811"
           style="display:inline;opacity:1;fill:#3aa1a7;fill-opacity:1;stroke-width:15.583"
           d="m 369.60352,333.20312 c -41.64131,3.76323 -81.82896,24.05366 -111.01563,54.36133 -15.39381,15.01985 -23.89718,35.71198 -27.58594,56.61133 -1.09999,5.00617 -5.52739,8.26625 -10.10156,9.91602 -20.81325,10.32019 -43.3594,17.58296 -61.58398,32.25781 -7.92058,6.31782 -14.83737,13.66113 -19.1875,23 -6.33749,13.55819 -5.33391,28.91398 -5.57618,43.48633 0.40223,28.36127 7.62989,57.05699 23.44922,80.83203 3.13666,4.98173 6.41345,9.86944 9.75782,14.71094 a 301.23909,301.23909 0 0 0 205.45703,80.9375 301.23909,301.23909 0 0 0 121.33789,-25.51758 c 5.9894,-14.90277 5.13434,-31.30006 7.26758,-46.97071 1.8571,-18.09078 3.20107,-36.78931 -2.19727,-54.50195 -2.11608,-7.39718 -5.96567,-14.10619 -9.39453,-20.94336 10.52659,-7.07792 22.07328,-13.3409 29.77539,-23.74609 3.54304,-4.48226 6.23812,-9.61457 7.91797,-15.07617 12.21384,-3.81702 20.47947,-15.37852 23.12109,-27.51953 5.12451,-14.9062 16.27926,-26.6963 22.23047,-41.22461 5.07201,-10.96279 7.67721,-22.94099 8.17773,-34.98438 1.54825,-17.45219 2.36318,-35.16567 -1.07226,-52.49023 -3.93902,-15.34929 -16.75341,-27.95673 -32.16602,-31.65235 -18.79351,-6.06065 -38.34638,-9.35935 -57.83593,-12.24414 -9.93585,-1.09471 -20.09831,-1.10294 -29.60352,0.5293 -6.35777,1.02895 -13.16807,10.89749 -19.36914,11.73242 -9.22741,-8.63275 -21.37958,-16.37771 -33.26563,-18.51953 -12.77491,-2.18867 -25.54186,-3.10981 -38.5371,-2.98438 z M 287.9375,516.51758 c 2.90104,0.0654 3.57789,4.57207 0.65039,5.25586 -3.9131,1.36743 -4.80683,-5.27442 -0.65039,-5.25586 z"
           transform="scale(0.26458333)" />
        <path
           id="path1813"
           style="display:inline;fill:#3aa1a7;fill-opacity:1;stroke-width:0.58837"
           d="m 48.853516,105.49805 c -4.288695,0.39759 -8.866532,0.72728 -12.524447,3.25161 -3.653808,2.79589 -5.334675,7.54055 -5.347035,12.03223 -0.09811,4.60366 2.012168,9.45728 6.074607,11.84897 3.198774,1.86798 7.194839,1.3942 10.493963,0.0499 2.988872,-1.16256 6.003477,-2.55162 8.234484,-4.9286 2.266125,-2.2851 6.818945,-10.30911 6.61079,-13.51264 -0.150397,-3.50402 -5.017751,-2.03539 -6.899784,-4.93875 -1.475131,-2.20026 -3.885455,-3.95942 -6.642578,-3.80273 z"
           sodipodi:nodetypes="scccccccss" />
        <path
           id="path1815"
           style="fill:#3aa1a7;fill-opacity:1;stroke-width:0.58837"
           d="m 59.273438,82.607422 c -5.042387,0.601263 -9.272147,4.302466 -11.49266,8.736745 -2.488097,4.764685 -3.444681,10.635983 -1.374528,15.726143 2.489791,5.87546 10.142546,8.97282 15.954674,6.21329 4.418653,-2.12882 7.384277,-6.2604 9.834081,-10.36015 2.378949,-3.583485 2.507219,-8.646044 -0.09561,-12.149889 -2.550546,-4.231245 -6.893708,-7.629614 -11.904084,-8.168092 -0.306942,0.0042 -0.615777,-0.01312 -0.921874,0.002 z" />
        <path
           id="path1817"
           style="opacity:1;fill:#3aa1a7;fill-opacity:1;stroke-width:15.583"
           d="m 562.45703,209.4043 c -2.29123,5.4e-4 -4.58345,0.11931 -6.87305,0.16015 -9.35266,0.41464 -19.18332,1.68503 -28.31054,3.75 -19.44817,4.45869 -38.66036,12.86085 -53.81446,26.39063 -5.44701,5.37978 -9.2102,11.49613 -11.86328,18.77148 -3.66281,9.98657 -4.14062,20.8729 -2.50586,31.31446 1.51442,18.08651 5.52356,36.69881 16.33985,51.6582 4.08907,5.68598 9.89945,10.98597 16.07422,14.84375 14.07515,9.00269 30.97981,12.1636 47.46679,12.47851 23.22524,0.72701 47.592,-4.39676 65.51172,-19.78906 12.58957,-10.67943 21.78658,-25.68053 25.7832,-41.46094 2.89748,-11.35327 3.157,-23.61791 0.71094,-35.34375 a 301.23909,301.23909 0 0 0 -41.72851,-54.04101 c -7.44148,-4.71296 -15.5612,-8.17349 -24.5,-8.6875 -0.76312,-0.0336 -1.52727,-0.0451 -2.29102,-0.0449 z"
           transform="scale(0.26458333)" />
        <path
           id="path1819"
           style="opacity:1;fill:#6eb1a8;fill-opacity:1;stroke-width:15.583"
           d="m 372.86523,343.17578 c -1.11048,-0.004 -2.20277,0.006 -3.27539,0.0312 -38.7954,3.57732 -75.1706,22.70373 -102.70507,49.85938 -11.60903,11.75081 -20.33023,26.57486 -23.63086,42.85351 -1.8958,6.78663 -2.54177,14.41312 -7.08399,20.07617 -6.57934,6.57956 -15.82471,9.18902 -23.95312,13.27344 -17.71188,7.67195 -36.07284,15.08851 -50.57618,28.2207 -9.84755,8.12005 -16.46724,20.43837 -16.37695,33.34961 -1.86282,22.35939 -0.62861,45.31457 6.3086,66.76758 6.47043,19.49405 17.97347,36.74737 30.15429,53.09375 5.10908,7.0169 9.99691,14.18753 14.84375,21.38672 a 301.23909,301.23909 0 0 0 176.64649,57.22852 301.23909,301.23909 0 0 0 106.33789,-19.39453 c 1.2237,-1.58726 2.36789,-3.24838 3.41211,-4.9961 6.58529,-11.05474 6.45032,-24.43138 7.64843,-36.6543 1.79963,-19.28991 5.03032,-39.15925 0.82227,-58.41406 -2.29988,-9.79068 -7.16401,-18.71108 -12.16406,-27.32617 -1.37469,-4.79856 3.41693,-7.99504 6.67383,-10.50586 6.78345,-4.65324 14.34274,-8.25747 20.22656,-14.13086 6.81728,-6.12306 12.50418,-14.34038 13.17187,-23.71875 9.05235,-0.63749 17.51645,-7.03458 19.97461,-15.8789 3.04245,-7.81849 5.07242,-16.21599 10.25196,-23.00391 8.88506,-14.36311 18.81272,-29.06871 20.72656,-46.29492 2.65077,-17.3986 2.91882,-35.11268 1.91211,-52.6543 -1.27695,-11.49974 -7.12026,-23.37268 -17.98047,-28.52148 -10.57032,-5.43915 -22.47052,-7.24548 -33.87891,-10.12696 -15.95274,-3.29891 -32.14816,-6.38613 -48.50195,-6.13281 -11.48111,0.72706 -21.07289,13.83006 -34.7832,17.9082 -7.54114,-10.90644 -3.95212,-18.16621 -11.2793,-19.32617 -15.64561,-3.72338 -36.26463,-6.91156 -52.92188,-6.96875 z m -84.60937,175.58594 c 1.10183,1.37378 -1.76991,2.35533 -0.60352,0.37305 0.11135,-0.19956 0.35324,-0.4277 0.60352,-0.37305 z"
           transform="scale(0.26458333)" />
        <path
           id="path1821"
           style="display:inline;fill:#3aa1a7;fill-opacity:1;stroke-width:0.58837"
           d="m 80.683594,66.894531 c -5.893967,0.228592 -11.903389,2.942111 -15.250858,7.930011 -2.8059,4.156625 -2.480624,9.846762 -0.03009,14.087167 1.574275,3.531589 4.966044,8.513753 8.945007,8.688756 5.468442,0.594247 10.940981,-4.42525 13.925052,-8.950591 2.588454,-3.215111 4.708544,-7.207308 4.340814,-11.456844 -0.285874,-4.730148 -3.997905,-8.975307 -8.628143,-9.947434 -1.07683,-0.271929 -2.192952,-0.371086 -3.301785,-0.351065 z"
           sodipodi:nodetypes="sccccccss" />
        <path
           id="path1823"
           style="display:inline;fill:#3aa1a7;fill-opacity:1;stroke-width:0.58837"
           d="m 105.9082,52.541016 c -6.283588,0.759475 -11.496059,5.929742 -13.015848,11.966823 -1.545149,5.575772 -1.305373,11.8105 1.419136,16.98737 1.778011,2.849671 5.485722,4.139687 8.698082,3.326367 3.63116,-0.641551 6.93609,-2.386365 10.18881,-4.040172 4.33774,-2.456931 8.12012,-6.427427 9.22731,-11.408682 0.98986,-4.186103 -0.2875,-8.87026 -3.45099,-11.828316 -3.40582,-3.407953 -8.31488,-5.014351 -13.0665,-5.00339 z" />
        <path
           id="path1825"
           style="fill:#6eb1a8;fill-opacity:1;stroke-width:0.58837"
           d="m 59.101562,85.289062 c -4.279947,0.741834 -7.621521,4.168428 -9.336609,8.0181 -1.846846,3.834711 -2.61601,8.657498 -0.925109,12.765108 2.045615,4.56863 8.107879,7.04141 12.647304,4.70393 3.952086,-2.01317 6.417474,-5.89914 8.669469,-9.5616 1.400968,-2.449824 1.81402,-5.694368 0.219158,-8.159102 -2.036641,-3.836524 -5.656184,-7.117234 -10.053509,-7.795732 -0.405927,-0.02322 -0.81948,-0.05085 -1.220704,0.0293 z" />
        <path
           id="path1827"
           style="display:inline;fill:#6eb1a8;fill-opacity:1;stroke-width:0.58837"
           d="m 80.792969,69.535156 c -5.256886,0.188669 -10.683496,2.649021 -13.482955,7.249078 -1.953767,3.385761 -1.451955,7.737236 0.497175,11.008926 1.15082,2.500979 3.357511,4.826938 6.239933,5.06641 4.331566,0.685801 8.849687,-1.376876 11.401887,-4.897635 2.017129,-2.497209 4.041673,-5.260764 4.483044,-8.526259 0.408031,-2.966918 -0.675869,-6.195924 -3.148873,-7.989682 -1.693896,-1.308883 -3.854625,-1.977318 -5.990211,-1.910838 z" />
        <path
           id="path1829"
           style="display:inline;fill:#6eb1a8;fill-opacity:1;stroke-width:0.58837"
           d="m 148.55664,57.523438 c -7.61747,0.03964 -15.45305,2.148504 -21.41602,7.041015 -2.99284,2.630869 -4.2382,6.857555 -3.66304,10.742447 0.35654,4.858184 1.13589,9.980148 4.14239,13.975186 2.57956,3.363322 6.67796,5.247693 10.81222,5.795404 4.89931,0.797261 10.01768,0.466104 14.72601,-1.130224 6.13498,-2.358586 10.89139,-8.088619 11.83878,-14.624624 0.93551,-5.499227 -0.59842,-11.619299 -4.79345,-15.460099 -2.3634,-2.228663 -4.93159,-4.338362 -7.9008,-5.700434 -1.18991,-0.459276 -2.46848,-0.703444 -3.74609,-0.638671 z" />
        <path
           id="path1831"
           style="display:inline;fill:#6eb1a8;fill-opacity:1;stroke-width:0.58837"
           d="m 105.69141,55.230469 c -5.12925,0.902408 -9.130561,5.274825 -10.339137,10.26225 -1.218706,4.506487 -1.021602,9.438856 0.731711,13.776812 0.811832,1.742072 2.534305,3.131366 4.520086,3.093429 2.68254,0.141775 5.20517,-1.063958 7.68104,-2.081521 3.88155,-1.72591 7.8161,-3.995135 10.02691,-7.766305 1.9236,-3.10814 2.55128,-7.267852 0.70202,-10.555732 -2.45207,-4.567141 -7.85441,-6.718954 -12.83067,-6.791793 -0.16474,-0.0028 -0.32827,0.04592 -0.49196,0.06286 z" />
        <path
           id="path1833"
           style="display:inline;fill:#6eb1a8;fill-opacity:1;stroke-width:0.58837"
           d="m 49.013672,108.13867 c -3.800793,0.40433 -7.905754,0.52557 -11.167455,2.77009 -3.176422,2.47677 -4.338441,6.73135 -4.215625,10.61297 0.139457,3.59505 1.856991,7.43075 5.215036,9.07399 2.616665,1.19865 5.638209,0.5635 8.15177,-0.58661 3.35458,-1.21596 6.857271,-3.04365 8.517616,-6.37216 1.523246,-3.10489 0.922853,-6.80991 -0.552855,-9.81339 -0.892153,-1.96354 -1.911458,-3.87582 -3.670649,-5.09658 -0.684939,-0.40047 -1.482056,-0.62337 -2.277838,-0.58831 z" />
        <path
           style="fill:#fde2af;fill-opacity:1;stroke-width:0.58837"
           d="m 49.054887,110.79685 c -0.953974,0.009 -2.702086,0.1968 -4.484481,0.49713 -3.259661,0.54925 -4.659434,1.08117 -5.699395,2.16524 -3.60744,3.76044 -3.450987,11.63327 0.283705,14.26735 1.991286,1.40445 3.842041,1.21309 8.672854,-0.8971 4.228793,-1.84722 6.010005,-4.07969 5.953125,-7.46053 -0.04575,-2.7193 -2.566951,-8.00416 -4.06435,-8.51938 -0.113384,-0.039 -0.343468,-0.0558 -0.661458,-0.0527 z"
           id="path1835"
           sodipodi:nodetypes="sssssssss" />
        <path
           style="fill:#fde2af;fill-opacity:1;stroke-width:0.58837"
           d="m 59.751906,87.849418 c -0.586888,0.01643 -1.176658,0.21536 -2.093927,0.605647 -5.629548,2.395294 -9.12861,12.695015 -5.917468,17.417545 0.688944,1.01321 2.155807,2.19977 3.259749,2.63704 3.721658,1.47413 6.948504,-0.0436 10.465511,-4.92269 3.30965,-4.59143 3.932788,-6.524737 2.85047,-8.840807 -1.264263,-2.70542 -4.111249,-5.517452 -6.487974,-6.407878 -0.905527,-0.339246 -1.489469,-0.50529 -2.076361,-0.488857 z"
           id="path1837"
           sodipodi:nodetypes="ssssssss" />
        <path
           style="display:inline;fill:#fde2af;fill-opacity:1;stroke-width:0.58837"
           d="m 80.774396,72.173371 c -0.306935,0.0042 -0.621649,0.02414 -0.943093,0.06046 -7.122103,0.804759 -12.096775,5.665623 -11.027752,10.775053 0.553012,2.643127 2.508917,6.047094 3.888652,6.767544 1.759628,0.918821 5.284883,0.685155 7.439856,-0.492993 2.427309,-1.327036 6.309029,-6.419654 7.006292,-9.191688 1.134475,-4.510238 -1.759906,-7.980968 -6.363955,-7.918379 z"
           id="path1839"
           sodipodi:nodetypes="scssssss" />
        <path
           style="display:inline;fill:#fde2af;fill-opacity:1;stroke-width:0.58837"
           d="m 148.2757,61.752818 c -0.37729,0.0018 -0.79921,0.01051 -1.28002,0.02119 -7.57327,0.168219 -16.48912,3.93201 -18.55288,7.831563 -0.85735,1.620028 -1.00243,2.899812 -0.70693,6.252332 0.88445,10.034153 3.79637,13.844418 11.5409,15.103472 4.59805,0.747514 10.56787,0.10982 13.52889,-1.445392 5.59055,-2.936309 8.61725,-8.267772 8.15764,-14.368632 -0.34847,-4.625462 -1.74439,-6.959536 -6.27145,-10.486181 -3.31138,-2.579605 -3.77511,-2.920616 -6.41615,-2.90835 z"
           id="path1841"
           sodipodi:nodetypes="ssssssssss" />
        <path
           style="display:inline;fill:#fde2af;fill-opacity:1;stroke-width:0.58837"
           d="m 106.6276,57.781486 c -1.43226,0.0093 -2.56196,0.559054 -4.49068,1.839163 -2.658998,1.764792 -4.371808,5.23068 -4.848804,9.810771 -0.37446,3.595574 0.486225,8.258509 1.782839,9.659358 1.110135,1.199386 3.798285,0.785294 8.295615,-1.277958 5.17587,-2.374546 7.30045,-4.099492 9.05785,-7.354589 2.82113,-5.225383 -0.0251,-10.42281 -6.65386,-12.15068 -1.3151,-0.342796 -2.28361,-0.531632 -3.14296,-0.526065 z"
           id="path1843"
           sodipodi:nodetypes="ssssssss" />
        <path
           style="display:inline;fill:#fde2af;fill-opacity:1;stroke-width:0.58837"
           d="m 49.054887,110.79685 c -0.953974,0.009 -2.702086,0.1968 -4.484481,0.49713 -3.259661,0.54925 -4.659434,1.08117 -5.699395,2.16524 -3.60744,3.76044 -3.450987,11.63327 0.283705,14.26735 1.991286,1.40445 3.842041,1.21309 8.672854,-0.8971 4.228793,-1.84722 6.010005,-4.07969 5.953125,-7.46053 -0.04575,-2.7193 -2.566951,-8.00416 -4.06435,-8.51938 -0.113384,-0.039 -0.343468,-0.0558 -0.661458,-0.0527 z"
           id="path1845" />
        <path
           style="display:inline;fill:#fde2af;fill-opacity:1;stroke-width:0.58837"
           d="m 99.359309,94.977663 c -0.625401,-0.0063 -1.185879,0.01033 -1.65313,0.05426 -7.485046,0.70368 -15.942033,4.557749 -22.127848,10.084137 -4.601953,4.11137 -6.189715,6.768 -7.380427,12.34809 -1.391303,6.52013 -2.397626,7.36893 -14.80013,12.48554 -4.283663,1.76722 -9.097672,5.35692 -10.116696,7.54373 -1.158078,2.4852 -1.127416,11.62202 0.05581,16.62999 1.172971,4.96457 3.537053,9.44312 8.294065,15.71325 2.102731,2.77156 3.823023,5.30202 3.823023,5.62291 3.727656,5.51738 3.759556,5.51761 7.26364,8.37262 4.901312,2.45755 10.04313,4.40279 15.343767,5.80481 2.589215,0.61012 2.507053,0.58412 4.441071,1.03922 5.244956,1.07059 10.584425,1.61006 15.937529,1.61023 5.750187,-1e-4 11.483467,-0.62246 17.099737,-1.85622 6.46626,-2.65496 8.67788,-4.82361 9.54205,-8.55606 1.39593,-15.13694 2.62889,-18.72649 -1.77492,-25.07045 l -0.95429,-2.6929 0.24879,-1.95003 c 1.19801,-2.52136 1.44905,-2.50801 3.02701,-4.02995 8.04143,-4.32831 9.56173,-7.98288 5.17965,-9.80616 -0.948,-0.39444 -3.50313,-0.84984 -5.67821,-1.01234 -4.80272,-0.35882 -3.86307,-1.13824 1.91926,-1.59215 2.73916,-0.21503 4.70837,-0.0435 6.6182,0.5767 4.26127,1.3837 4.65966,1.23897 5.51853,-2.00297 0.42047,-1.58711 1.91836,-4.59793 3.32848,-6.69055 3.71914,-5.5192 4.3944,-7.69127 4.74699,-15.26883 0.39032,-8.38844 -0.22665,-10.46831 -3.47213,-11.70213 -3.29877,-1.254085 -10.96716,-2.871269 -15.63833,-3.297994 -3.20681,-0.292949 -4.6874,-0.148452 -7.17837,0.700215 -9.27185,3.158909 -21.7186,14.165889 -20.5419,18.165819 0.19429,0.66042 -0.10518,2.67067 -0.665594,4.46691 -1.16368,3.72989 -2.289344,4.64005 -11.266496,9.11055 -5.121702,2.55054 -10.824857,6.78849 -11.40757,8.477 -0.335691,0.97272 -2.375051,0.40603 -2.375051,-0.6599 0,-0.40346 2.698983,-2.46525 5.997567,-4.58215 12.448185,-7.98873 15.749944,-11.77183 15.749944,-18.04438 v -3.47317 l 3.90106,-3.45405 c 2.14547,-1.89973 5.84991,-4.99532 8.23257,-6.87917 3.13779,-2.4809 4.14858,-3.598087 3.66644,-4.051435 -0.97131,-0.91331 -8.52632,-2.088941 -12.904123,-2.133203 z"
           id="path1847"
           sodipodi:nodetypes="ccsssssscccccccccccssscsssssssssssssccsscc" />
        <path
           id="path1849"
           style="display:inline;fill:#9fc939;fill-opacity:1;stroke-width:0.58837"
           d="m 98.144531,98.208984 c -7.718765,0.77792 -14.934116,4.469586 -20.728623,9.527196 -2.647268,2.35159 -5.008994,5.28712 -5.715684,8.84059 -0.827571,3.2691 -1.411545,6.90934 -3.966187,9.34795 -3.048528,2.97478 -7.185603,4.3493 -10.994038,6.05458 -3.701642,1.58535 -7.528197,3.34555 -10.232187,6.4289 -0.978719,1.46923 -0.648217,3.32598 -0.834387,4.98796 -0.225519,5.64712 0.490073,11.50069 3.24167,16.52168 2.390498,4.70123 6.005915,8.60583 8.745978,13.08287 4.509898,5.90316 7.552337,7.94283 11.727599,10.39187 7.138525,2.26282 14.783736,4.49142 19.449219,5.10547 8.402346,0.99607 16.997519,0.78284 25.266249,-1.07711 2.54319,-0.74666 5.08179,-1.96502 6.83256,-4.005 1.44841,-2.08018 1.63533,-4.83367 1.05026,-7.24096 -0.20309,-0.45184 -0.34628,-1.16467 -0.67367,-1.39738 -4.23034,1.35911 -12.64943,2.09415 -15.26581,-0.33026 -0.90669,-3.6412 0.64595,-3.91141 6.96696,-7.68644 2.62668,-1.84153 5.13853,-4.12385 6.44259,-7.11051 0.3566,-1.33579 -0.61754,-2.52857 -1.62765,-3.26812 -1.19238,-1.10832 -5.63645,-2.36461 -5.88173,-4.115 -0.91292,-1.25729 0.80447,-5.22224 2.49328,-5.95144 2.62084,-0.91455 3.59106,-1.60011 8.20108,-2.36507 2.13641,-1.22007 5.16468,-0.88172 6.88338,-2.66173 0.37114,-1.29855 -0.3858,-2.0399 -1.96274,-2.24637 -1.7896,-0.19734 -2.65573,-0.18961 -4.75067,-1.0124 -2.50163,-1.36726 -0.96982,-2.47391 0.92302,-3.29384 1.98008,-1.05294 4.83947,-0.48312 7.00232,-0.78022 2.87957,-0.20744 2.49003,-0.89832 5.14399,0.005 1.80386,-0.73747 3.08853,-5.51764 3.35763,-5.90011 1.44231,-4.2086 1.72561,-3.24265 3.50045,-7.31648 1.44951,-3.89357 1.29193,-8.12207 1.41202,-12.20954 -0.0188,-1.43485 0.10797,-3.01752 -0.64555,-4.29336 -0.83645,-0.96238 -2.22107,-0.94999 -3.33885,-1.37198 -4.78082,-1.26319 -9.4409,-2.59175 -14.39719,-2.74277 -3.92687,0.13041 -5.48839,-1.412505 -8.93072,-0.332868 -4.53985,2.514768 -6.8511,3.698738 -10.66257,7.459348 -2.1817,1.88726 -5.52037,6.00482 -5.82487,7.34775 -0.458862,3.41305 -0.0147,3.66993 -0.870204,6.89895 -1.562951,3.1647 -2.163589,3.32218 -5.589786,5.32922 -3.335568,1.8206 -5.771717,2.73929 -9.425253,5.29053 -2.107751,0.82431 -2.925663,1.51969 -5.301211,3.72868 -1.796759,1.25855 -1.303354,2.21615 -3.901055,2.50505 -0.410672,-1.57906 -0.757099,-0.73275 0.632771,-1.75407 5.376348,-3.90729 11.920684,-6.78029 16.29891,-11.90318 1.435225,-1.79733 3.549569,-3.66123 4.241523,-6.10045 0.315514,-2.33502 -0.22486,-5.42712 1.235741,-6.70625 1.930557,-1.86385 3.096154,-4.1155 5.111644,-5.8857 1.95877,-1.65128 6.49862,-4.68196 8.39272,-7.045176 -2.76656,-0.290885 -10.24519,-0.836414 -13.032929,-0.75029 z"
           sodipodi:nodetypes="cccccccccccccccccccccccccccccccccccccccccccccccccc" />
        <path
           id="path1851"
           style="display:inline;fill:#b3e23a;fill-opacity:1;stroke-width:0.58837"
           d="m 77.550509,112.89769 c -1.609796,1.9453 -2.341348,4.26915 -2.782931,6.7527 -0.86069,3.89559 -2.62137,7.84108 -5.960597,10.21843 -5.452937,4.30792 -12.704058,5.40193 -18.174279,9.67659 -0.64108,0.51889 -1.3105,1.2196 -1.156191,2.11529 -0.336235,5.52053 -0.06012,11.22685 2.558137,16.21306 2.298075,4.5158 5.697005,8.32877 8.396993,12.59108 5.237396,6.14507 6.418773,6.67299 14.841797,11.10938 0.921375,0.26391 1.850579,0.68646 2.77627,0.829 7.540922,0.45646 6.584303,-7.18144 11.583114,-9.44013 6.705129,-4.10138 17.525038,-5.55514 23.082398,-9.44558 7.98973,-5.58967 1.91081,-5.83822 -1.47053,-9.69402 -1.8153,-2.85422 -0.17768,-6.10349 1.95592,-7.54418 1.17563,-0.8319 1.93609,-1.24433 4.53705,-1.86774 1.45176,-0.4865 8.83859,-2.61169 9.7185,-3.28272 -2.42562,-0.81195 -8.27247,-1.08024 -8.65092,-3.67763 -0.57635,-3.27985 7.64174,-4.87278 10.89629,-5.83637 3.03803,-1.11906 2.15989,-0.15821 5.35453,-0.26122 1.42455,0.0352 2.0173,-7.01045 3.41448,-6.72266 1.77473,-4.1672 0.47254,-2.95691 1.40055,-7.48644 0.66139,-3.40274 0.49317,-6.88562 0.55079,-10.33203 -5.01044,-1.328 -11.75122,-3.32374 -17.45694,-4.11454 -4.9165,-0.86719 -8.81572,-1.39423 -11.58829,0.34669 -3.3759,2.21642 -9.31695,7.96514 -11.02499,11.55654 -0.12903,2.22121 -0.0838,4.79538 -0.870204,6.89895 -1.333302,4.05647 -4.819684,4.93814 -8.62911,6.86283 -5.015058,3.03547 -6.385929,3.75692 -10.307225,6.21667 -2.196649,2.3456 -3.198179,3.45773 -5.28097,3.77398 4.951136,-5.56981 11.609654,-8.57356 16.976284,-13.53851 3.948852,-2.67384 3.770733,-6.18247 4.66009,-8.76221 0.558931,-2.50368 2.329629,-7.07246 5.552425,-9.47432 2.99128,-2.72657 5.41655,-4.58974 6.91452,-5.87905 1.39796,-1.219116 -9.24739,-0.37084 -12.575391,0.31337 -7.298213,2.49439 -14.60592,6.95682 -19.24157,11.88479 z m 40.113551,66.9734 c -1e-5,0 10e-6,4e-5 0,4e-5 z"
           sodipodi:nodetypes="ccccccccccccccccccccccccccccccccccccc" />
        <path
           id="path1853"
           style="display:inline;fill:#97bd38;fill-opacity:1;stroke-width:0.58837"
           d="m 47.443359,115.20898 c -1.838012,0.22046 -3.790518,0.28223 -5.443359,1.25586 -1.413198,1.23419 -1.503641,3.32002 -1.454061,5.0645 0.08717,0.99715 0.310781,2.2247 1.245077,2.76558 1.320558,0.12633 2.498049,-0.70241 3.713729,-1.1045 1.433904,-0.61246 3.132987,-1.22665 3.864079,-2.71384 0.510167,-1.68512 -0.483694,-3.33834 -1.156238,-4.82842 -0.175971,-0.41712 -0.282269,-0.59279 -0.769227,-0.43918 z" />
        <path
           id="path1855"
           style="display:inline;fill:#b2e13b;fill-opacity:1;stroke-width:0.58837"
           d="m 46.630859,116.87305 c -1.382187,0.29397 -3.156926,0.11561 -4.035156,1.45898 -0.701105,1.3646 -0.469529,2.95646 -0.261719,4.41406 1.830876,-0.75382 3.744186,-1.38061 5.38086,-2.52539 0.533496,-1.18532 -0.31466,-2.31973 -0.642578,-3.42382 -0.147136,0.0254 -0.294271,0.0508 -0.441407,0.0762 z" />
        <path
           id="path1857"
           style="display:inline;fill:#a0ca3b;fill-opacity:1;stroke-width:0.58837"
           d="m 59.53125,89.478516 c -3.225973,0.809647 -5.302748,3.794935 -6.423828,6.748046 -0.968136,2.521272 -1.488521,5.569388 -0.365387,8.182168 1.260221,2.50211 4.684359,3.92908 7.199371,2.41939 2.287125,-1.29839 3.804328,-3.54959 5.265625,-5.66601 0.867074,-1.378973 1.958495,-2.819302 1.992188,-4.511719 -0.180852,-1.635971 -1.336235,-2.941356 -2.345148,-4.162507 -1.340788,-1.42291 -3.016524,-2.781029 -5.014614,-3.03177 -0.103776,-0.01108 -0.205561,0.013 -0.308207,0.0224 z" />
        <path
           id="path1859"
           style="display:inline;fill:#b2e03b;fill-opacity:1;stroke-width:0.58837"
           d="m 59.537109,92.289062 c -2.629776,1.256084 -3.889931,4.163506 -4.540321,6.845881 -0.387929,1.651747 -0.465993,3.715227 0.847187,4.985787 1.050327,0.895 2.787657,0.84546 3.683872,-0.24776 2.149573,-1.81961 3.606011,-4.299744 4.944809,-6.736251 0.139786,-1.053672 -0.852822,-1.805419 -1.364564,-2.615055 -0.86955,-1.03353 -1.956732,-1.950876 -3.266295,-2.353695 -0.101563,0.04036 -0.203125,0.08073 -0.304688,0.121093 z" />
        <path
           id="path1861"
           style="display:inline;fill:#a0ca3a;fill-opacity:1;stroke-width:0.58837"
           d="m 80.154297,74.867188 c -3.330165,0.357227 -6.860669,1.895703 -8.470842,4.994497 -0.868176,1.971097 0.03034,4.126055 1.013811,5.866831 0.46645,1.004381 1.312878,2.054945 2.541182,1.952267 2.271984,0.176662 4.547256,-0.91435 5.861518,-2.771818 1.35852,-1.646113 2.786874,-3.360371 3.439096,-5.426543 0.444814,-1.432816 0.15366,-3.255085 -1.257208,-4.039786 C 82.3617,74.855128 81.219666,74.7181 80.154297,74.867188 Z" />
        <path
           id="path1863"
           style="display:inline;fill:#b2e239;fill-opacity:1;stroke-width:0.58837"
           d="m 80.652344,76.941406 c -2.703888,0.246262 -5.609992,1.345571 -7.033203,3.802735 -0.516802,1.697707 0.566104,3.308734 1.386718,4.705078 0.816712,0.371082 1.687919,-0.0096 2.47461,-0.240235 1.806414,-0.867773 2.686679,-2.624556 3.905365,-4.131842 0.668298,-1.007103 1.427162,-2.218597 1.118072,-3.473626 -0.371039,-0.6102 -1.202721,-0.704433 -1.851562,-0.66211 z" />
        <path
           id="path1865"
           style="display:inline;fill:#a1cb3b;fill-opacity:1;stroke-width:0.58837"
           d="m 106.41797,62.693359 c -2.59748,0.865244 -3.94303,3.650621 -4.24428,6.207871 -0.29676,1.895471 -0.20942,3.842746 0.17201,5.719864 2.67456,-0.87071 5.43666,-2.108789 7.74414,-3.841797 1.40627,-1.157712 2.78186,-2.851808 2.56114,-4.780622 -0.52887,-1.963295 -2.79489,-2.763419 -4.48953,-3.19189 -0.56959,-0.131644 -1.16156,-0.196867 -1.74348,-0.113426 z" />
        <path
           id="path1867"
           style="display:inline;fill:#b1df3f;fill-opacity:1;stroke-width:0.58837"
           d="m 106.56641,63.779297 c -2.33494,0.999502 -3.29325,3.672585 -3.43439,6.039177 -0.12582,1.134435 -0.0499,2.275616 0.032,3.410042 2.98979,-1.237631 6.29989,-2.530668 8.09375,-5.402344 0.57458,-0.944499 0.37514,-2.351668 -0.67262,-2.875861 -1.13993,-0.81023 -2.60085,-1.214084 -3.97423,-1.192322 z" />
        <path
           id="path1869"
           style="display:inline;fill:#9fc83b;fill-opacity:1;stroke-width:0.58837"
           d="m 145.90445,64.833743 c -5.6223,0.06245 -9.0775,0.56655 -13.71206,3.807142 -1.71421,1.069926 -2.74335,3.131161 -2.45845,5.147884 0.1895,3.142583 0.47873,6.350257 1.60786,9.314747 0.78878,2.116539 2.25007,2.864858 4.37858,3.681757 3.34635,1.39807 5.06074,1.376756 8.6213,1.061412 3.03526,-0.270859 5.93536,-1.570308 8.15892,-3.734642 2.8246,-2.58764 4.89266,-4.883082 4.50983,-8.707493 -0.11332,-2.609065 -0.82178,-5.614452 -2.84041,-7.328001 -1.67759,-1.557416 -3.12777,-1.55725 -5.092,-2.731785 -1.97303,0.06606 -2.45155,-0.525164 -3.17357,-0.511021 z"
           sodipodi:nodetypes="ccccccccccc" />
        <path
           id="path1871"
           style="display:inline;fill:#b2e13b;fill-opacity:1;stroke-width:0.58837"
           d="m 148.34766,67.568359 c -5.15369,0.102385 -8.71521,1.302636 -12.79853,4.595279 -0.63653,0.961204 -1.11567,2.391583 -1.0701,3.461713 0.33764,2.714959 0.28647,3.260483 2.11342,5.46559 1.71661,1.690583 3.09141,2.144726 5.32119,2.264274 2.39071,0.05994 4.2176,0.474827 6.51471,-0.326052 4.94551,-1.614111 8.44894,-6.566241 5.62715,-10.983824 -1.10315,-1.499429 -2.68354,-2.55326 -4.13233,-3.688325 -0.47146,-0.340502 -0.96934,-0.757734 -1.57551,-0.788655 z"
           sodipodi:nodetypes="ccccccccc" />
      </g>
      <text
         xml:space="preserve"
         id="logo-text"
         style="font-style:normal;font-variant:normal;font-weight:bold;font-stretch:normal;font-size:12.2573px;line-height:1.25;font-family:'Cabin Sketch';-inkscape-font-specification:'Cabin Sketch, Bold';font-variant-ligatures:normal;font-variant-caps:normal;font-variant-numeric:normal;font-variant-east-asian:normal;letter-spacing:0.836106px;word-spacing:0px;white-space:pre;shape-inside:url(#rect990-36);fill:#585858;fill-opacity:1;stroke:#585858;stroke-width:0.0928426;stroke-linejoin:round;stroke-miterlimit:4;stroke-dasharray:none;stroke-opacity:1;paint-order:stroke fill markers"
         transform="matrix(2.2618936,0,0,2.2618936,-629.24877,-180.92036)"><tspan
           x="318.31445"
           y="139.38112"
           id="tspan3">gaitmap&#10;</tspan></text>
    </g>
  </g>
</svg>
